<svg aria-hidden="true" style="position: absolute; width: 0; height: 0; overflow: hidden;" version="1.1" xmlns="http://www.w3.org/2000/svg" xmlns:xlink="http://www.w3.org/1999/xlink">
<defs>
<symbol id="google-icon" viewBox="0 0 31 32">
<title>google-icon</title>
<path fill="#4285f4" style="fill: var(--color1, #4285f4)" d="M31.254 16.299c0-1.311-0.106-2.268-0.337-3.26h-14.971v5.917h8.787c-0.177 1.471-1.134 3.685-3.26 5.173l-0.030 0.198 4.733 3.667 0.328 0.033c3.012-2.782 4.748-6.874 4.748-11.729z"></path>
<path fill="#34a853" style="fill: var(--color2, #34a853)" d="M15.947 31.89c4.305 0 7.919-1.417 10.559-3.862l-5.032-3.898c-1.346 0.939-3.154 1.595-5.528 1.595-4.217 0-7.795-2.781-9.071-6.626l-0.187 0.016-4.922 3.809-0.064 0.179c2.622 5.209 8.008 8.788 14.244 8.788z"></path>
<path fill="#fbbc05" style="fill: var(--color3, #fbbc05)" d="M6.876 19.099c-0.337-0.992-0.531-2.055-0.531-3.154s0.195-2.161 0.514-3.154l-0.009-0.211-4.984-3.87-0.163 0.078c-1.081 2.161-1.701 4.589-1.701 7.158s0.62 4.996 1.701 7.157l5.173-4.004z"></path>
<path fill="#eb4335" style="fill: var(--color4, #eb4335)" d="M15.947 6.165c2.994 0 5.014 1.293 6.165 2.374l4.5-4.394c-2.764-2.569-6.36-4.146-10.665-4.146-6.236 0-11.622 3.579-14.244 8.787l5.156 4.004c1.293-3.845 4.872-6.626 9.089-6.626z"></path>
</symbol>
<symbol id="comments" viewBox="0 0 40 32">
<title>comments</title>
<path d="M26 11c0-6.075-5.819-11-13-11s-13 4.925-13 11c0 2.473 0.976 4.747 2.604 6.587-1.024 2.047-2.452 3.582-2.474 3.605-0.131 0.138-0.167 0.342-0.090 0.522 0.079 0.179 0.248 0.285 0.439 0.285 2.397 0 4.423-0.695 5.984-1.503 1.925 0.946 4.15 1.503 6.538 1.503 7.181 0 13-4.925 13-11zM37.475 27.731c1.575-1.863 2.525-4.194 2.525-6.731 0-6.075-5.375-11-12-11-0.020 0-0.039 0.003-0.058 0.003 0.027 0.329 0.058 0.66 0.058 0.997 0 6.164-4.98 11.325-11.631 12.656 1.3 4.788 5.95 8.344 11.631 8.344 2.106 0 4.082-0.5 5.803-1.374 1.522 0.749 3.453 1.374 5.716 1.374 0.191 0 0.36-0.108 0.439-0.288 0.077-0.18 0.041-0.384-0.090-0.522-0.017-0.021-1.374-1.484-2.392-3.459z"></path>
</symbol>
<symbol id="leaf" viewBox="0 0 32 32">
<title>leaf</title>
<path d="M32 10.338c0 7.994-4.378 14.706-10.956 16.881-1.253 0.496-2.614 0.779-4.043 0.779-4.056 0-7.825-2.282-9.731-5.904-3.383 3.121-4.294 6.688-4.31 6.756-0.164 0.688-0.78 1.151-1.458 1.151-0.115 0-0.233-0.014-0.35-0.041-0.806-0.194-1.302-1.005-1.109-1.81 0.6-2.469 5.654-14.15 20.956-14.15 0.552 0.001 1.002-0.449 1.002-0.999s-0.45-1-1-1c-6.713 0-11.563 2.162-14.982 4.725 0.012-0.676 0.078-1.365 0.221-2.066 0.842-4.113 4.128-7.438 8.213-8.387 1.771-0.41 3.48-0.376 5.058-0 3.5 0.833 7.387-0.463 9.331-3.828 0.354-0.614 1.251-0.595 1.541 0.052 1.037 2.302 1.618 5.123 1.618 7.842z"></path>
</symbol>
<symbol id="plant-on-a-hand" viewBox="0 0 32 32">
<title>plant-on-a-hand</title>
<path d="M17.666 11.37c0.287-0.693 0.48-1.495 0.523-2.336 0.063-0.844-0.054-1.722-0.305-2.576-0.262-0.85-0.662-1.679-1.224-2.387-0.544-0.714-1.237-1.315-1.963-1.709-0.727-0.394-1.478-0.565-2.005-0.548-0.256-0.009-0.482 0.062-0.615 0.097-0.134 0.045-0.205 0.069-0.205 0.069s0.017 0.072 0.044 0.207c0.028 0.128 0.032 0.348 0.052 0.551 0.019 0.447-0.025 0.987-0.080 1.576-0.099 1.161-0.073 2.517 0.348 3.855 0.209 0.665 0.479 1.33 0.846 1.942 0.35 0.616 0.773 1.185 1.204 1.674 0.39 0.433 1.272 1.435 1.591 1.69 0.081-0.569 0.151-1.151 0.164-1.742 0.034-0.416 0.005-0.829-0.002-1.237-0.007-0.41-0.081-0.805-0.116-1.193-0.069-0.382-0.162-0.747-0.238-1.096-0.122-0.337-0.237-0.654-0.343-0.947-0.149-0.275-0.286-0.527-0.407-0.752-0.106-0.236-0.28-0.385-0.383-0.535-0.23-0.288-0.361-0.453-0.361-0.453s0.144 0.154 0.392 0.425c0.115 0.144 0.304 0.284 0.428 0.513 0.14 0.218 0.297 0.465 0.469 0.733 0.13 0.292 0.272 0.608 0.423 0.943 0.103 0.349 0.226 0.719 0.327 1.108 0.065 0.394 0.171 0.8 0.209 1.218 0.037 0.419 0.099 0.845 0.095 1.273 0.017 0.486 0.011 0.967-0.012 1.44 0.038-0.041 0.083-0.075 0.119-0.121 0.36-0.405 0.727-0.987 1.024-1.68z"></path>
<path d="M13.857 14.916c0.064 0.105 0.117 0.205 0.177 0.308-3.209 0.613-5.813 2.926-6.842 5.967l0.213 0.027c0.265 0.002 0.669 0.065 1.36 0.187 0.014-0.205 0.086-0.404 0.214-0.572 0.509-0.672 1.25-1.029 2.145-1.029 1.343 0.004 2.764 0.044 4.201 0.479 0.757 0.228 1.532 0.185 2.32-0.131 2.265-0.907 4.254-0.822 5.861 0.225 0.199 0.13 0.405 0.267 0.615 0.408-1.143-2.915-3.758-5.089-6.93-5.607 0.087-0.151 0.169-0.302 0.264-0.458 0.089-0.143 0.267-0.526 0.243-0.617-0.010-0.056-0.008-0.111-0.010-0.165-0.323 0.406-0.613 0.814-0.868 1.203-0.157-0.020-0.318-0.025-0.479-0.037 0.084-0.605 0.152-1.254 0.184-1.934-0.051 0.053-0.096 0.108-0.154 0.155-0.102 0.069-0.259 0.606-0.295 0.825-0.056 0.32-0.118 0.622-0.183 0.919-0.055-0.001-0.107-0.013-0.162-0.013-0.462 0-0.916 0.038-1.359 0.105-0.226-0.337-0.47-0.681-0.746-1.029-0.003 0.054 0 0.109-0.011 0.165-0.023 0.091 0.154 0.475 0.242 0.617z"></path>
<path d="M19.085 12.435c0.232-0.22 0.493-0.397 0.726-0.59 0.25-0.172 0.504-0.32 0.738-0.469 0.253-0.116 0.491-0.225 0.711-0.327 0.232-0.067 0.445-0.13 0.634-0.185 0.184-0.068 0.361-0.055 0.498-0.080 0.277-0.030 0.436-0.047 0.436-0.047s-0.158 0.029-0.432 0.078c-0.134 0.035-0.308 0.034-0.484 0.114-0.18 0.067-0.384 0.144-0.607 0.225-0.205 0.114-0.429 0.238-0.667 0.369-0.218 0.161-0.452 0.323-0.682 0.507-0.214 0.204-0.452 0.392-0.661 0.622-0.207 0.228-0.429 0.45-0.617 0.703-0.287 0.344-0.537 0.711-0.774 1.075 0.309 0.015 1.31-0.118 1.748-0.17 0.489-0.064 1.013-0.178 1.52-0.354 0.513-0.165 0.999-0.41 1.449-0.683 0.909-0.553 1.597-1.313 2.119-2.023 0.263-0.363 0.507-0.692 0.74-0.937 0.112-0.105 0.225-0.229 0.305-0.288 0.084-0.062 0.129-0.095 0.129-0.095s-0.029-0.051-0.083-0.144c-0.059-0.085-0.152-0.239-0.302-0.361-0.292-0.271-0.804-0.549-1.415-0.687-0.61-0.136-1.303-0.139-1.97-0.004-0.673 0.124-1.314 0.396-1.886 0.751-0.569 0.361-1.072 0.804-1.458 1.316-0.393 0.501-0.682 1.052-0.864 1.591-0.177 0.543-0.258 1.056-0.254 1.467-0.002 0.043 0.006 0.086 0.008 0.128 0.224-0.28 0.458-0.557 0.711-0.826 0.208-0.243 0.456-0.456 0.686-0.676z"></path>
<path d="M5.833 10.46c0.234 0.245 0.476 0.575 0.738 0.937 0.523 0.71 1.212 1.47 2.119 2.023 0.45 0.274 0.935 0.518 1.449 0.684 0.507 0.177 1.032 0.29 1.52 0.354 0.438 0.052 1.44 0.185 1.748 0.169-0.236-0.364-0.487-0.729-0.774-1.074-0.188-0.253-0.41-0.474-0.617-0.704-0.209-0.23-0.448-0.418-0.661-0.622-0.23-0.184-0.465-0.345-0.683-0.507-0.236-0.13-0.461-0.255-0.667-0.369-0.222-0.082-0.426-0.157-0.606-0.225-0.178-0.081-0.35-0.080-0.485-0.114-0.275-0.051-0.431-0.078-0.431-0.078s0.158 0.017 0.436 0.046c0.138 0.025 0.314 0.012 0.498 0.080 0.188 0.054 0.401 0.117 0.632 0.185 0.221 0.101 0.459 0.211 0.712 0.327 0.233 0.146 0.487 0.297 0.738 0.469 0.233 0.192 0.495 0.37 0.726 0.59 0.229 0.22 0.476 0.432 0.688 0.677 0.252 0.268 0.487 0.546 0.711 0.826 0.001-0.042 0.010-0.084 0.007-0.129 0.005-0.41-0.076-0.924-0.253-1.467-0.182-0.538-0.471-1.090-0.865-1.59-0.386-0.513-0.888-0.955-1.456-1.316-0.573-0.354-1.213-0.626-1.886-0.75-0.666-0.136-1.36-0.134-1.97 0.004s-1.125 0.415-1.416 0.687c-0.149 0.122-0.244 0.275-0.302 0.361-0.053 0.093-0.083 0.143-0.083 0.143s0.044 0.033 0.128 0.097c0.080 0.058 0.193 0.181 0.305 0.287z"></path>
<path d="M27.85 25.42c-1.384-1.878-3.196-3.278-5.105-4.522-1.55-1.009-3.315-0.793-4.959-0.135-1.007 0.402-2.003 0.451-2.971 0.157-1.291-0.39-2.59-0.432-3.907-0.436-0.565-0.002-1.034 0.196-1.37 0.639-0.188 0.248 1.351 1.278 2.67 1.278-0.245 0.489-4.51-0.546-5.079-0.504l-3.227-0.413c-1.147-0.093-1.145-0.527-2.273 0.111-0.038 0.022-0.095 0.022-0.141 0.019-0.628-0.036-0.982 0.163-1.331 0.579-0.202 0.239-0.185 0.534-0.078 0.813 0.113 0.293 0.401 0.217 0.637 0.31 1.443 0.571 1.909 0.851 3.865 1.334 1.392 0.344 2.748 0.763 4.138 1.078 0.574 0.131 1.159 0.228 1.677 0.519 1.101 0.62 2.271 0.808 3.529 0.751 1.427-0.065 2.859-0.008 4.29-0.016 2.511-0.012 4.418 0.994 5.708 3.205l8.077-0.017c-1.763-2.062-2.54-2.561-4.151-4.75z"></path>
</symbol>
<symbol id="truck" viewBox="0 0 40 32">
<title>truck</title>
<path d="M23 0c1.656 0 3 1.343 3 3v3h3.169c1.063 0 2.025 0.419 2.831 1.169l4.831 4.831c0.75 0.75 1.169 1.769 1.169 2.831v7.169c1.106 0 2 0.894 2 2s-0.894 2-2 2h-2c0 3.313-2.688 6-6 6-3.369 0-6-2.688-6-6h-8c0 3.313-2.688 6-6 6-3.369 0-6-2.688-6-6h-1c-1.657 0-3-1.344-3-3v-20c0-1.657 1.343-3 3-3h20zM26 10v6h8v-1.169l-4.831-4.831h-3.169zM10 23c-1.656 0-3 1.344-3 3s1.344 3 3 3c1.656 0 3-1.344 3-3s-1.344-3-3-3zM30 29c1.656 0 3-1.344 3-3s-1.344-3-3-3c-1.656 0-3 1.344-3 3s1.344 3 3 3z"></path>
</symbol>
<symbol id="facebook" viewBox="0 0 32 32">
<title>facebook</title>
<path d="M31.997 15.999c0-8.836-7.163-15.999-15.999-15.999s-15.999 7.163-15.999 15.999c0 7.985 5.851 14.604 13.499 15.804v-11.18h-4.062v-4.625h4.062v-3.525c0-4.010 2.389-6.225 6.043-6.225 1.75 0 3.581 0.313 3.581 0.313v3.937h-2.017c-1.987 0-2.607 1.233-2.607 2.498v3.001h4.437l-0.709 4.625h-3.728v11.18c7.649-1.2 13.499-7.819 13.499-15.804z"></path>
</symbol>
<symbol id="twitter" viewBox="0 0 32 32">
<title>twitter</title>
<path d="M31.939 6.092c-1.18 0.519-2.44 0.872-3.767 1.033 1.352-0.815 2.392-2.099 2.884-3.631-1.268 0.74-2.673 1.279-4.169 1.579-1.195-1.279-2.897-2.079-4.788-2.079-3.623 0-6.56 2.937-6.56 6.556 0 0.52 0.060 1.020 0.169 1.499-5.453-0.257-10.287-2.876-13.521-6.835-0.569 0.963-0.888 2.081-0.888 3.3 0 2.28 1.16 4.284 2.917 5.461-1.076-0.035-2.088-0.331-2.971-0.821v0.081c0 3.18 2.257 5.832 5.261 6.436-0.551 0.148-1.132 0.228-1.728 0.228-0.419 0-0.82-0.040-1.221-0.115 0.841 2.604 3.26 4.503 6.139 4.556-2.24 1.759-5.079 2.807-8.136 2.807-0.52 0-1.039-0.031-1.56-0.089 2.919 1.859 6.357 2.945 10.076 2.945 12.072 0 18.665-9.995 18.665-18.648 0-0.279 0-0.56-0.020-0.84 1.281-0.919 2.4-2.080 3.28-3.397z"></path>
</symbol>
<symbol id="youtube" viewBox="0 0 32 32">
<title>youtube</title>
<path d="M31.327 8.273c-0.386-1.353-1.431-2.398-2.756-2.777l-0.028-0.007c-2.493-0.668-12.528-0.668-12.528-0.668s-10.009-0.013-12.528 0.668c-1.353 0.386-2.398 1.431-2.777 2.756l-0.007 0.028c-0.443 2.281-0.696 4.903-0.696 7.585 0 0.054 0 0.109 0 0.163l-0-0.008c-0 0.037-0 0.082-0 0.126 0 2.682 0.253 5.304 0.737 7.845l-0.041-0.26c0.386 1.353 1.431 2.398 2.756 2.777l0.028 0.007c2.491 0.669 12.528 0.669 12.528 0.669s10.008 0 12.528-0.669c1.353-0.386 2.398-1.431 2.777-2.756l0.007-0.028c0.425-2.233 0.668-4.803 0.668-7.429 0-0.099-0-0.198-0.001-0.297l0 0.015c0.001-0.092 0.001-0.201 0.001-0.31 0-2.626-0.243-5.196-0.708-7.687l0.040 0.258zM12.812 20.801v-9.591l8.352 4.803z"></path>
</symbol>
</defs>
</svg>
